<svg xmlns="http://www.w3.org/2000/svg" width="18" height="18" viewBox="0 0 18 18" fill="none">
                            <path d="M13.1378 9.41685C13.1307 8.21802 13.6739 7.3145 14.7708 6.64829C14.1573 5.76938 13.2292 5.28599 12.0057 5.19282C10.8473 5.10142 9.57996 5.86782 9.11589 5.86782C8.62546 5.86782 7.50398 5.22446 6.62156 5.22446C4.80046 5.25259 2.86511 6.67642 2.86511 9.57329C2.86511 10.4293 3.02156 11.3135 3.33445 12.2241C3.75281 13.4229 5.26101 16.3602 6.83425 16.3127C7.65691 16.2934 8.23874 15.7291 9.30925 15.7291C10.3481 15.7291 10.886 16.3127 11.8036 16.3127C13.3909 16.2899 14.755 13.6198 15.1522 12.4174C13.0235 11.4137 13.1378 9.47837 13.1378 9.41685ZM11.2903 4.05552C12.1815 2.99731 12.1007 2.03403 12.0743 1.68774C11.2868 1.73345 10.3762 2.22388 9.85769 2.82681C9.2864 3.47368 8.95066 4.27349 9.02273 5.17524C9.87351 5.24028 10.6505 4.80259 11.2903 4.05552Z" fill="#313131"/>
</svg>