<svg xmlns="http://www.w3.org/2000/svg" width="19" height="18" viewBox="0 0 19 18" fill="none">
                        <path d="M16.8547 7.53161H16.2506V7.50049H9.50061V10.5005H13.7392C13.1209 12.2469 11.4592 13.5005 9.50061 13.5005C7.01549 13.5005 5.00061 11.4856 5.00061 9.00049C5.00061 6.51536 7.01549 4.50049 9.50061 4.50049C10.6477 4.50049 11.6914 4.93324 12.486 5.64011L14.6074 3.51874C13.2679 2.27036 11.4761 1.50049 9.50061 1.50049C5.35874 1.50049 2.00061 4.85861 2.00061 9.00049C2.00061 13.1424 5.35874 16.5005 9.50061 16.5005C13.6425 16.5005 17.0006 13.1424 17.0006 9.00049C17.0006 8.49761 16.9489 8.00674 16.8547 7.53161Z" fill="#FFC107"/>
                        <path d="M2.86487 5.50961L5.32899 7.31674C5.99574 5.66599 7.61049 4.50049 9.50012 4.50049C10.6472 4.50049 11.6909 4.93324 12.4855 5.64011L14.6069 3.51874C13.2674 2.27036 11.4756 1.50049 9.50012 1.50049C6.61937 1.50049 4.12112 3.12686 2.86487 5.50961Z" fill="#FF3D00"/>
                        <path d="M9.50085 16.5005C11.4381 16.5005 13.1984 15.7591 14.5292 14.5535L12.208 12.5893C11.4297 13.1811 10.4786 13.5013 9.50085 13.5005C7.5501 13.5005 5.89372 12.2566 5.26972 10.5208L2.82397 12.4051C4.06522 14.834 6.58598 16.5005 9.50085 16.5005Z" fill="#4CAF50"/>
                        <path d="M16.8544 7.53149H16.2502V7.50037H9.50024V10.5004H13.7389C13.4431 11.3315 12.9103 12.0578 12.2062 12.5895L12.2074 12.5887L14.5286 14.553C14.3644 14.7022 17.0002 12.7504 17.0002 9.00037C17.0002 8.49749 16.9485 8.00662 16.8544 7.53149Z" fill="#1976D2"/>
</svg>