 <svg class="register__logo" xmlns="http://www.w3.org/2000/svg" width="35" height="26" viewBox="0 0 35 26" fill="none" >
                        <path d="M18.7577 12.3478C17.9879 11.2226 16.7617 10.335 16.2609 10.1304C16.2609 10.1304 16.7617 10.2117 17.3478 10.4923C17.7943 10.7061 18.2903 11.0719 18.6522 11.3913C19.2264 11.8981 19.7894 12.8774 20.0974 13.5652C20.3399 14.1069 20.4783 14.4348 20.4783 14.4348C20.4783 14.4348 20.8112 13.262 21.5465 12.087C21.9488 11.444 22.5935 10.8004 23.087 10.3478C23.7589 9.73165 24.7854 9.09624 25.6522 8.69894C26.5403 8.29188 27.2609 8.13044 27.2609 8.13044C27.2609 8.13044 24.1394 9.78948 22.8044 11.5217C22.2863 12.194 21.7413 13.1486 21.3927 14C20.9597 15.0579 20.7826 15.9565 20.7826 15.9565C20.7826 15.9565 21.5392 15.5282 22.0435 15.2931C23.5076 14.6107 24.6018 14.8959 26 14.087C26.994 13.5119 28.1697 12.6963 28.8914 11.6522C29.8581 10.2536 29.9167 9.91514 30.1305 8.65218C30.2905 7.70615 30.2894 7.14817 30.1739 6.19566C30.0555 5.21841 29.6087 3.73914 29.6087 3.73914C29.6087 3.73914 29.0861 4.41606 28.3913 4.92547C27.2236 5.78162 25.6316 6.07673 24.3913 6.82609C23.2403 7.52155 22.3905 8.02516 21.5652 9.08696C20.852 10.0046 20.3913 11.6087 20.3913 11.6087C20.3913 11.6087 19.9131 10.4923 19.1739 9.91305C18.4348 9.33376 16.9565 8.91305 16.9565 8.91305C16.9565 8.91305 15.2358 8.52619 14.4783 8.02175C14.1226 7.78493 13.9131 7.47827 13.9131 7.47827C13.9131 7.47827 13.5868 9.49523 13.9131 10.7174C14.1814 11.7226 14.436 12.3123 15.1305 13.087C15.753 13.7814 16.2328 14.082 17.087 14.4565C18.1135 14.9066 19.9131 14.9565 19.9131 14.9565C19.9131 14.9565 19.5697 13.5347 18.7577 12.3478Z" fill="#9ECE17"/>
                        <path fill-rule="evenodd" clip-rule="evenodd" d="M0 0.869565C0 1.34981 0.389318 1.82609 0.869565 1.82609C0.869565 1.82609 3.10464 1.76561 4.82609 2.17975C5.37581 2.31201 5.79506 2.49266 6.17391 2.73913C6.92631 3.22863 7.98247 5.13074 9.01888 6.99728L9.01893 6.99736C9.2402 7.39587 9.46057 7.79275 9.67689 8.17391C11.091 10.6656 12.5688 13.3952 13.9069 15.8668L13.907 15.8669C14.4638 16.8954 14.9964 17.8792 15.4902 18.7826C15.4902 18.7826 14.3787 19.6114 14.2174 20.4348C14.1092 20.987 14.1538 21.4107 14.5357 21.8696C14.8263 22.2187 15.4254 22.3966 15.5444 22.4293C15.0804 22.7955 14.7826 23.363 14.7826 24C14.7826 25.1046 15.678 26 16.7826 26C17.8872 26 18.7826 25.1046 18.7826 24C18.7826 23.3703 18.4916 22.8085 18.0367 22.4419L27.2354 22.4685C26.799 22.8354 26.5217 23.3853 26.5217 24C26.5217 25.1046 27.4172 26 28.5217 26C29.6263 26 30.5217 25.1046 30.5217 24C30.5217 23.3895 30.2482 22.8428 29.8169 22.476L30.6087 22.4783C30.6087 22.4783 31.3478 22.3043 31.3478 21.6087C31.3478 20.913 30.6087 20.6522 30.6087 20.6522L16.1304 20.6666C16.1304 20.6666 19.1883 19.5284 20.4783 19.087C21.0335 18.8969 21.5152 18.7388 21.9581 18.5933C23.6199 18.0477 24.7342 17.6818 27.1304 16.4887C27.8279 16.1415 28.6299 15.6784 29.3044 15.1757C30.1418 14.5514 30.7826 13.913 30.7826 13.913C30.7826 13.913 31.6332 12.8932 32.1305 12.0435C32.5751 11.2836 32.9383 10.4603 33.2355 9.78659L33.2355 9.78648C33.2896 9.66387 33.3415 9.5462 33.3913 9.43478C34.1276 7.78773 34.8261 5.13044 34.8261 5.13044H30.5217C30.5217 5.13044 30.6188 5.67847 30.6522 6.04348C30.6847 6.39896 30.6957 6.95652 30.6957 6.95652H32.2609C32.2609 6.95652 31.7688 9.18954 30.7826 10.9541C29.9234 12.4916 28.8219 13.3913 27.3043 14.5217C26.7663 14.9226 25.1731 15.7537 23.5652 16.3229C20.6386 17.359 17.2609 18.1304 17.2609 18.1304L11 6.91304H23.2609C23.2609 6.91304 24.3473 6.28286 25.0435 5.93478C25.7396 5.58671 26.8261 5.13044 26.8261 5.13044H9.95652C9.95652 5.13044 9.46101 3.87854 8.67247 2.73913C8.1156 1.93446 7.36899 1.22948 6.73913 0.869565C5.21739 0 1.17827 0 0.869565 0C0.389318 0 0 0.389318 0 0.869565Z" fill="#129C4E"/>
                    </svg>